<svg width="24" height="24" viewBox="0 0 24 24" fill="none" xmlns="http://www.w3.org/2000/svg">
<mask id="path-1-inside-1_334_3268" fill="white">
<path fill-rule="evenodd" clip-rule="evenodd" d="M15 15.9584C15 15.5724 15.2256 15.2261 15.5579 15.0296C17.6182 13.8113 19 11.567 19 9C19 5.13401 15.866 2 12 2C8.13401 2 5 5.13401 5 9C5 11.567 6.38176 13.8113 8.44208 15.0296C8.77437 15.2261 9 15.5724 9 15.9584V18C9 18.5523 9.44772 19 10 19H14C14.5523 19 15 18.5523 15 18V15.9584Z"/>
</mask>
<path d="M8.44208 15.0296L7.42406 16.7512L8.44208 15.0296ZM15.5579 15.0296L14.5399 13.3081L15.5579 15.0296ZM17 9C17 10.8311 16.0168 12.4348 14.5399 13.3081L16.5759 16.7512C19.2197 15.1878 21 12.3029 21 9H17ZM12 4C14.7614 4 17 6.23858 17 9H21C21 4.02944 16.9706 0 12 0V4ZM7 9C7 6.23858 9.23858 4 12 4V0C7.02944 0 3 4.02944 3 9H7ZM9.46009 13.3081C7.98321 12.4348 7 10.8311 7 9H3C3 12.3029 4.7803 15.1878 7.42406 16.7512L9.46009 13.3081ZM11 18V15.9584H7V18H11ZM14 17H10V21H14V17ZM13 15.9584V18H17V15.9584H13ZM7 18C7 19.6569 8.34315 21 10 21V17C10.5523 17 11 17.4477 11 18H7ZM7.42406 16.7512C7.2365 16.6403 7 16.3769 7 15.9584H11C11 14.7679 10.3122 13.812 9.46009 13.3081L7.42406 16.7512ZM14 21C15.6569 21 17 19.6569 17 18H13C13 17.4477 13.4477 17 14 17V21ZM14.5399 13.3081C13.6878 13.812 13 14.7679 13 15.9584H17C17 16.3769 16.7635 16.6403 16.5759 16.7512L14.5399 13.3081Z" fill="#616870" mask="url(#path-1-inside-1_334_3268)"/>
<path d="M10 21H14" stroke="#616870" stroke-width="2" stroke-linecap="round"/>
<path d="M12 10L12 13" stroke="#616870" stroke-width="2" stroke-linecap="round"/>
</svg>
