<svg width="358" height="56" viewBox="0 0 358 56" fill="none" xmlns="http://www.w3.org/2000/svg">
<path d="M19.3251 55H1.23469C0.641565 55 0.27086 54.6293 0.27086 54.0362V1.54438C0.27086 0.951248 0.641565 0.580544 1.23469 0.580544H19.3251C37.4155 0.580544 46.8314 10.6637 46.8314 27.7903C46.8314 44.8427 37.4155 55 19.3251 55ZM10.2799 9.99644V45.5841H18.213C30.2979 45.5841 36.4516 39.208 36.4516 27.7903C36.4516 16.3726 30.2979 9.99644 18.213 9.99644H10.2799ZM63.1922 55H55.4815C54.8884 55 54.5177 54.6293 54.5177 54.0362V17.5588C54.5177 16.9657 54.8884 16.595 55.4815 16.595H62.4508C63.0439 16.595 63.4888 16.8916 63.4888 17.5588L63.7112 22.378C66.3061 18.2261 70.8287 16.076 75.4255 16.076C76.5376 16.076 77.279 16.1501 78.0204 16.2984C78.6135 16.4467 78.8359 16.8174 78.8359 17.3364V24.9729C78.8359 25.6402 78.4652 25.8626 77.798 25.7885C76.8341 25.7143 75.722 25.4919 74.2392 25.4919C69.0493 25.4919 64.156 29.0507 64.156 35.1302V54.0362C64.156 54.6293 63.7853 55 63.1922 55ZM100.355 55.7414C88.2704 55.7414 80.9304 47.4376 80.9304 35.7975C80.9304 24.1574 88.2704 15.8536 100.355 15.8536C112.144 15.8536 118.891 24.6022 118.52 37.7993C118.446 38.4666 118.075 38.7631 117.482 38.7631H91.1619C92.0516 44.0271 95.3138 47.2152 100.429 47.2152C104.359 47.2152 107.102 45.7324 108.882 42.8409C109.178 42.3219 109.623 42.2478 110.142 42.396L116.74 44.6944C117.334 44.9168 117.556 45.3617 117.259 45.9548C113.849 52.7016 107.473 55.7414 100.355 55.7414ZM91.3101 31.5715H108.214C107.325 27.0489 104.433 24.3798 100.281 24.3798C95.7586 24.3798 92.4964 26.9747 91.3101 31.5715ZM139.89 55.7414C128.918 55.7414 121.948 47.5859 121.948 35.7975C121.948 24.0091 128.918 15.8536 139.89 15.8536C145.229 15.8536 149.677 18.0778 152.42 21.859L152.643 17.5588C152.643 16.8916 153.088 16.595 153.681 16.595H160.65C161.243 16.595 161.614 16.9657 161.614 17.5588V54.0362C161.614 54.6293 161.243 55 160.65 55H153.681C153.088 55 152.643 54.7034 152.643 54.0362L152.42 49.736C149.677 53.5172 145.229 55.7414 139.89 55.7414ZM142.263 46.9928C148.417 46.9928 152.643 42.396 152.643 35.7975C152.643 29.1989 148.417 24.6022 142.263 24.6022C136.109 24.6022 131.883 29.1989 131.883 35.7975C131.883 42.396 136.109 46.9928 142.263 46.9928ZM178.861 55H171.15C170.557 55 170.186 54.6293 170.186 54.0362V17.5588C170.186 16.9657 170.557 16.595 171.15 16.595H178.119C178.712 16.595 179.157 16.8916 179.157 17.5588L179.38 22.1556C182.123 18.0037 186.794 15.8536 191.539 15.8536C197.322 15.8536 201.548 18.3744 203.624 22.897C206.441 18.2261 211.483 15.8536 216.747 15.8536C225.125 15.8536 230.24 21.1917 230.24 30.0145V54.0362C230.24 54.6293 229.87 55 229.277 55H221.566C220.973 55 220.602 54.6293 220.602 54.0362V33.944C220.602 27.5678 218.23 24.6022 213.781 24.6022C209.259 24.6022 205.033 28.0868 205.033 35.4268V54.0362C205.033 54.6293 204.662 55 204.069 55H196.358C195.765 55 195.394 54.6293 195.394 54.0362V33.944C195.394 27.5678 193.022 24.6022 188.573 24.6022C184.051 24.6022 179.825 28.0868 179.825 35.4268V54.0362C179.825 54.6293 179.454 55 178.861 55ZM262.945 55H255.234C254.641 55 254.27 54.6293 254.27 54.0362V1.54438C254.27 0.951248 254.641 0.580544 255.234 0.580544H263.76C264.279 0.580544 264.65 0.802968 264.872 1.24781L283.704 32.5353L302.314 1.24781C302.536 0.802968 302.907 0.580544 303.426 0.580544H311.729C312.323 0.580544 312.693 0.951248 312.693 1.54438V54.0362C312.693 54.6293 312.323 55 311.729 55H304.019C303.426 55 303.055 54.6293 303.055 54.0362V17.2623L287.115 43.953C286.892 44.3978 286.522 44.6203 286.003 44.6203H280.961C280.442 44.6203 280.071 44.3978 279.849 43.953L263.909 17.633V54.0362C263.909 54.6293 263.538 55 262.945 55ZM339.402 55.7414C327.317 55.7414 319.977 47.4376 319.977 35.7975C319.977 24.1574 327.317 15.8536 339.402 15.8536C351.19 15.8536 357.937 24.6022 357.566 37.7993C357.492 38.4666 357.122 38.7631 356.529 38.7631H330.208C331.098 44.0271 334.36 47.2152 339.476 47.2152C343.406 47.2152 346.149 45.7324 347.928 42.8409C348.225 42.3219 348.67 42.2478 349.189 42.396L355.787 44.6944C356.38 44.9168 356.603 45.3617 356.306 45.9548C352.896 52.7016 346.519 55.7414 339.402 55.7414ZM330.357 31.5715H347.261C346.371 27.0489 343.48 24.3798 339.328 24.3798C334.805 24.3798 331.543 26.9747 330.357 31.5715Z" fill="white"/>
</svg>
