<svg width="59" height="39" viewBox="0 0 59 39" fill="none" xmlns="http://www.w3.org/2000/svg">
<g id="4">
<path id="Union" fill-rule="evenodd" clip-rule="evenodd" d="M21 39C23.1137 39 25.0881 38.4038 26.7643 37.3705C28.3726 36.3791 30.6274 36.3791 32.2357 37.3705C33.9119 38.4038 35.8863 39 38 39C41.9529 39 45.4189 36.9149 47.358 33.7846C47.996 32.7547 49.0508 32.0175 50.2372 31.7723C55.2396 30.7388 59 26.3086 59 21C59 16.1211 55.8236 11.984 51.426 10.544C50.04 10.0901 48.9099 8.96002 48.456 7.57399C47.016 3.17638 42.8789 0 38 0C35.8863 0 33.9119 0.596155 32.2357 1.62949C30.6274 2.62093 28.3726 2.62093 26.7643 1.62949C25.0881 0.596155 23.1137 0 21 0C16.1211 0 11.984 3.17638 10.544 7.57399C10.0901 8.96003 8.96002 10.0901 7.57399 10.544C3.17638 11.984 0 16.1211 0 21C0 26.3086 3.76042 30.7388 8.7628 31.7723C9.94923 32.0175 11.004 32.7547 11.642 33.7846C13.5811 36.9149 17.047 39 21 39Z" fill="#EEEEEE"/>
<path id="Vector 17" d="M23 26C23.4815 27 25.4074 29 29.2593 29C33.1111 29 35.358 27 36 26" stroke="black" stroke-width="2" stroke-linecap="round"/>
<circle id="Ellipse 12" cx="22" cy="20" r="2" fill="black"/>
<circle id="Ellipse 17" cx="37" cy="20" r="2" fill="black"/>
</g>
</svg>
