<svg width="122" height="20" viewBox="0 0 122 20" fill="none" xmlns="http://www.w3.org/2000/svg">
<path d="M6.58009 19H0.451103C0.250152 19 0.124558 18.8744 0.124558 18.6735V0.889352C0.124558 0.688402 0.250152 0.562808 0.451103 0.562808H6.58009C12.7091 0.562808 15.8992 3.97896 15.8992 9.7814C15.8992 15.5587 12.7091 19 6.58009 19ZM3.51559 3.75289V15.8099H6.20331C10.2977 15.8099 12.3825 13.6497 12.3825 9.7814C12.3825 5.91311 10.2977 3.75289 6.20331 3.75289H3.51559ZM21.4422 19H18.8298C18.6289 19 18.5033 18.8744 18.5033 18.6735V6.31501C18.5033 6.11406 18.6289 5.98847 18.8298 5.98847H21.191C21.3919 5.98847 21.5426 6.08894 21.5426 6.31501L21.618 7.94773C22.4972 6.54108 24.0294 5.81263 25.5868 5.81263C25.9635 5.81263 26.2147 5.83775 26.4659 5.88799C26.6669 5.93823 26.7422 6.06382 26.7422 6.23965V8.82689C26.7422 9.05296 26.6166 9.12832 26.3906 9.1032C26.064 9.07808 25.6872 9.00272 25.1849 9.00272C23.4266 9.00272 21.7687 10.2084 21.7687 12.2682V18.6735C21.7687 18.8744 21.6431 19 21.4422 19ZM34.033 19.2512C29.9386 19.2512 27.4518 16.4379 27.4518 12.4942C27.4518 8.55058 29.9386 5.73728 34.033 5.73728C38.0268 5.73728 40.3127 8.7013 40.1871 13.1724C40.1619 13.3985 40.0364 13.499 39.8354 13.499H30.9182C31.2197 15.2824 32.3249 16.3625 34.0581 16.3625C35.3894 16.3625 36.3188 15.8602 36.9216 14.8805C37.0221 14.7047 37.1728 14.6796 37.3486 14.7298L39.5842 15.5085C39.7852 15.5838 39.8605 15.7346 39.76 15.9355C38.6046 18.2213 36.4444 19.2512 34.033 19.2512ZM30.9685 11.0625H36.6956C36.3941 9.53022 35.4145 8.62594 34.0078 8.62594C32.4756 8.62594 31.3704 9.5051 30.9685 11.0625ZM47.4274 19.2512C43.7098 19.2512 41.3486 16.4881 41.3486 12.4942C41.3486 8.50035 43.7098 5.73728 47.4274 5.73728C49.2359 5.73728 50.743 6.49084 51.6724 7.7719L51.7478 6.31501C51.7478 6.08894 51.8985 5.98847 52.0995 5.98847H54.4606C54.6616 5.98847 54.7872 6.11406 54.7872 6.31501V18.6735C54.7872 18.8744 54.6616 19 54.4606 19H52.0995C51.8985 19 51.7478 18.8995 51.7478 18.6735L51.6724 17.2166C50.743 18.4976 49.2359 19.2512 47.4274 19.2512ZM48.2312 16.2872C50.316 16.2872 51.7478 14.7298 51.7478 12.4942C51.7478 10.2587 50.316 8.7013 48.2312 8.7013C46.1463 8.7013 44.7145 10.2587 44.7145 12.4942C44.7145 14.7298 46.1463 16.2872 48.2312 16.2872ZM60.6304 19H58.0181C57.8171 19 57.6915 18.8744 57.6915 18.6735V6.31501C57.6915 6.11406 57.8171 5.98847 58.0181 5.98847H60.3792C60.5802 5.98847 60.7309 6.08894 60.7309 6.31501L60.8063 7.87238C61.7357 6.46572 63.3181 5.73728 64.9257 5.73728C66.885 5.73728 68.3168 6.59132 69.0201 8.12356C69.9746 6.54108 71.6827 5.73728 73.4661 5.73728C76.3045 5.73728 78.0377 7.54583 78.0377 10.535V18.6735C78.0377 18.8744 77.9122 19 77.7112 19H75.0988C74.8979 19 74.7723 18.8744 74.7723 18.6735V11.8663C74.7723 9.70605 73.9685 8.7013 72.4614 8.7013C70.9291 8.7013 69.4974 9.88188 69.4974 12.3686V18.6735C69.4974 18.8744 69.3718 19 69.1708 19H66.5585C66.3575 19 66.2319 18.8744 66.2319 18.6735V11.8663C66.2319 9.70605 65.4281 8.7013 63.921 8.7013C62.3887 8.7013 60.957 9.88188 60.957 12.3686V18.6735C60.957 18.8744 60.8314 19 60.6304 19ZM89.1179 19H86.5055C86.3046 19 86.179 18.8744 86.179 18.6735V0.889352C86.179 0.688402 86.3046 0.562808 86.5055 0.562808H89.3942C89.57 0.562808 89.6956 0.638165 89.771 0.788877L96.1511 11.389L102.456 0.788877C102.531 0.638165 102.657 0.562808 102.833 0.562808H105.646C105.847 0.562808 105.973 0.688402 105.973 0.889352V18.6735C105.973 18.8744 105.847 19 105.646 19H103.034C102.833 19 102.707 18.8744 102.707 18.6735V6.21454L97.3066 15.2573C97.2313 15.408 97.1057 15.4834 96.9298 15.4834H95.2217C95.0459 15.4834 94.9203 15.408 94.845 15.2573L89.4444 6.34013V18.6735C89.4444 18.8744 89.3188 19 89.1179 19ZM115.021 19.2512C110.927 19.2512 108.44 16.4379 108.44 12.4942C108.44 8.55058 110.927 5.73728 115.021 5.73728C119.015 5.73728 121.301 8.7013 121.176 13.1724C121.15 13.3985 121.025 13.499 120.824 13.499H111.907C112.208 15.2824 113.313 16.3625 115.047 16.3625C116.378 16.3625 117.307 15.8602 117.91 14.8805C118.011 14.7047 118.161 14.6796 118.337 14.7298L120.573 15.5085C120.774 15.5838 120.849 15.7346 120.749 15.9355C119.593 18.2213 117.433 19.2512 115.021 19.2512ZM111.957 11.0625H117.684C117.383 9.53022 116.403 8.62594 114.996 8.62594C113.464 8.62594 112.359 9.5051 111.957 11.0625Z" fill="#9F9696"/>
</svg>
