<svg width="19" height="19" viewBox="0 0 19 19" fill="none" xmlns="http://www.w3.org/2000/svg">
<g id="Group 329">
<path id="Vector 574" d="M13.7954 13.2539L12.8708 12.8731L13.7954 13.2539L15.3131 9.56824C15.6205 8.82165 15.4488 7.96345 14.8779 7.39253L11.5781 4.0927C11.0072 3.52178 10.1489 3.35014 9.40236 3.65755L5.71671 5.17517C5.08592 5.43491 4.63102 5.99825 4.50996 6.6696L3.30703 13.3404C3.05951 14.713 4.2576 15.9111 5.63021 15.6636L12.301 14.4606C12.9724 14.3396 13.5357 13.8847 13.7954 13.2539Z" stroke="#939393" stroke-width="2"/>
<path id="Vector 575" d="M13.228 1.5L17.4707 5.74264" stroke="#939393" stroke-width="2" stroke-linecap="round"/>
<circle id="Ellipse 178" cx="9.33887" cy="9.63182" r="1.5" transform="rotate(45 9.33887 9.63182)" fill="#939393"/>
<path id="Vector 576" d="M8.98535 9.98523L4.38916 14.5814" stroke="#939393" stroke-width="2" stroke-linecap="round"/>
</g>
</svg>
