<svg width="171" height="165" viewBox="0 0 171 165" fill="none" xmlns="http://www.w3.org/2000/svg">
<g id="lottie 3">
<path id="Star 1" d="M78.3986 10.9977C85.2531 3.71672 97.0807 4.62891 102.738 12.8749L121.057 39.5775C122.628 41.8676 124.779 43.6992 127.291 44.8849L156.574 58.7094C165.617 62.9785 168.404 74.509 162.31 82.4373L142.575 108.111C140.882 110.313 139.805 112.925 139.454 115.68L135.355 147.802C134.089 157.722 123.984 163.936 114.561 160.59L84.0447 149.754C81.4276 148.825 78.6106 148.608 75.8819 149.125L44.0654 155.153C34.2403 157.014 25.2079 149.324 25.4781 139.328L26.353 106.957C26.4281 104.181 25.7642 101.435 24.4293 98.9995L8.86463 70.603C4.05817 61.834 8.58061 50.8672 18.1711 48.0352L49.2277 38.8643C51.8913 38.0778 54.298 36.5977 56.2017 34.5756L78.3986 10.9977Z" fill="#28F1FF"/>
<path id="Vector 20" d="M51.1358 66.7263C53.7454 66.8511 61.2381 68.779 70.3329 75.4914" stroke="black" stroke-width="7.83761" stroke-linecap="round"/>
<path id="Vector 21" d="M117.68 69.9102C115.071 69.7853 107.428 70.9889 97.734 76.8024" stroke="black" stroke-width="7.83761" stroke-linecap="round"/>
<path id="Vector 19" d="M66.3159 97.0652C67.317 101.073 71.9239 109.289 82.3431 110.093C92.7623 110.896 99.4428 103.551 101.481 99.7772" stroke="black" stroke-width="7.83761" stroke-linecap="round"/>
</g>
</svg>
