<svg width="24" height="24" viewBox="0 0 24 24" fill="none" xmlns="http://www.w3.org/2000/svg">
<circle cx="12" cy="12" r="9" stroke="#939393" stroke-width="2"/>
<path d="M12.4897 10.9214C12.1504 11.1258 11.8555 11.3515 11.6073 11.5998C11.343 11.8641 11.146 12.2029 11.0102 12.6067C10.8724 13.0164 10.8051 13.5496 10.7983 14.1951H10.7983L12.6193 11.1352M12.4897 10.9214C12.4899 10.9213 12.4901 10.9212 12.4904 10.921L12.6193 11.1352M12.4897 10.9214C12.4895 10.9216 12.4893 10.9217 12.4891 10.9218L12.6193 11.1352M12.4897 10.9214C12.6666 10.8135 12.8248 10.6865 12.965 10.5405M12.6193 11.1352C12.8149 11.0159 12.9905 10.875 13.1463 10.7126M12.965 10.5405C12.9647 10.5408 12.9644 10.5411 12.9641 10.5414L13.1463 10.7126M12.965 10.5405C12.9653 10.5402 12.9656 10.5399 12.9659 10.5396L13.1463 10.7126M12.965 10.5405C13.0992 10.3975 13.2053 10.2329 13.2833 10.045L13.2846 10.042L13.2846 10.042C13.3625 9.86124 13.4034 9.65677 13.4034 9.42499C13.4034 9.14069 13.3372 8.9072 13.214 8.71441C13.0859 8.51387 12.916 8.36027 12.7002 8.251C12.4831 8.14101 12.2389 8.08408 11.9631 8.08408C11.727 8.08408 11.4999 8.13277 11.2796 8.23132C11.072 8.32421 10.8961 8.47075 10.7511 8.67825C10.6733 8.78961 10.6111 8.92507 10.5675 9.08838C10.4786 9.42104 10.1908 9.73465 9.78559 9.73465H9.52408C9.10992 9.73465 8.72433 9.37716 8.81786 8.91521C8.8938 8.54016 9.03015 8.20073 9.22896 7.90004L9.22975 7.89884L9.22975 7.89884C9.5231 7.46063 9.91026 7.12455 10.3874 6.89322L10.388 6.89289L10.388 6.89289C10.8659 6.66296 11.3923 6.54999 11.9631 6.54999C12.5799 6.54999 13.1292 6.67282 13.6029 6.92788C14.0752 7.1804 14.4446 7.5301 14.7043 7.97614C14.9677 8.42264 15.0966 8.92783 15.0966 9.48465C15.0966 9.87461 15.0364 10.2348 14.9115 10.562C14.7914 10.8856 14.6163 11.1758 14.3868 11.4309C14.1637 11.6827 13.896 11.9032 13.5862 12.0935C13.3103 12.266 13.0977 12.4428 12.9423 12.6216L12.9409 12.6232L12.9409 12.6232C12.7916 12.7922 12.681 12.9956 12.6109 13.238C12.5396 13.4846 12.4979 13.8035 12.4915 14.2005C12.4915 14.2009 12.4915 14.2013 12.4914 14.2017L13.1463 10.7126" fill="#939393" stroke="#939393" stroke-width="0.5"/>
<path d="M12.235 17.5521L12.235 17.5521L12.2362 17.5514C12.3995 17.4518 12.5306 17.3191 12.627 17.1551C12.7287 16.9875 12.7796 16.8028 12.7796 16.605C12.7796 16.306 12.6701 16.0448 12.4575 15.8322C12.2449 15.6196 11.9838 15.5101 11.6847 15.5101C11.3856 15.5101 11.1245 15.6196 10.9119 15.8322C10.6992 16.0448 10.5898 16.306 10.5898 16.605C10.5898 16.9041 10.6992 17.1652 10.9119 17.3778C11.1245 17.5905 11.3856 17.6999 11.6847 17.6999C11.8839 17.6999 12.0691 17.6516 12.235 17.5521Z" fill="#939393" stroke="#939393" stroke-width="0.4"/>
</svg>
