<svg width="25" height="25" viewBox="0 0 25 25" fill="none" xmlns="http://www.w3.org/2000/svg">
<path d="M14.5 12H10.5" stroke="currentColor" stroke-width="2" stroke-linecap="round"/>
<path d="M14.5 16H10.5" stroke="currentColor" stroke-width="2" stroke-linecap="round"/>
<path d="M14.5 3.74902V7.5C14.5 8.05228 14.9477 8.5 15.5 8.5H19.5" stroke="currentColor" stroke-width="2"/>
<mask id="path-4-inside-1_71_1422" fill="white">
<path fill-rule="evenodd" clip-rule="evenodd" d="M17.6716 3.67157C16.9214 2.92143 15.904 2.5 14.8431 2.5H8.5C6.29086 2.5 4.5 4.29086 4.5 6.5V18.5C4.5 20.7091 6.29086 22.5 8.5 22.5H16.5C18.7091 22.5 20.5 20.7091 20.5 18.5V8.15685C20.5 7.09599 20.0786 6.07857 19.3284 5.32843L17.6716 3.67157Z"/>
</mask>
<path d="M8.5 4.5H14.8431V0.5H8.5V4.5ZM6.5 18.5V6.5H2.5V18.5H6.5ZM16.5 20.5H8.5V24.5H16.5V20.5ZM18.5 8.15685V18.5H22.5V8.15685H18.5ZM20.7426 3.91421L19.0858 2.25736L16.2574 5.08579L17.9142 6.74264L20.7426 3.91421ZM22.5 8.15685C22.5 6.56556 21.8679 5.03943 20.7426 3.91421L17.9142 6.74264C18.2893 7.11771 18.5 7.62642 18.5 8.15685H22.5ZM16.5 24.5C19.8137 24.5 22.5 21.8137 22.5 18.5H18.5C18.5 19.6046 17.6046 20.5 16.5 20.5V24.5ZM2.5 18.5C2.5 21.8137 5.18629 24.5 8.5 24.5V20.5C7.39543 20.5 6.5 19.6046 6.5 18.5H2.5ZM14.8431 4.5C15.3736 4.5 15.8823 4.71071 16.2574 5.08579L19.0858 2.25736C17.9606 1.13214 16.4344 0.5 14.8431 0.5V4.5ZM8.5 0.5C5.18629 0.5 2.5 3.18629 2.5 6.5H6.5C6.5 5.39543 7.39543 4.5 8.5 4.5V0.5Z" fill="currentColor" mask="url(#path-4-inside-1_71_1422)"/>
</svg>
