<svg width="25" height="25" viewBox="0 0 25 25" fill="none" xmlns="http://www.w3.org/2000/svg">
<g id="lottie 2-a">
<path id="Ellipse 161" d="M25 12.5C25 19.4036 19.4036 25 12.5 25C5.59644 25 0 19.4036 0 12.5C0 5.59644 5.59644 0 12.5 0C19.4036 0 25 5.59644 25 12.5ZM2.5 12.5C2.5 18.0228 6.97715 22.5 12.5 22.5C18.0228 22.5 22.5 18.0228 22.5 12.5C22.5 6.97715 18.0228 2.5 12.5 2.5C6.97715 2.5 2.5 6.97715 2.5 12.5Z" fill="#D9D9D9"/>
<path id="Ellipse 163" d="M23.75 12.5C23.75 14.4608 23.2375 16.3876 22.2633 18.0893C21.2892 19.7909 19.8871 21.2085 18.1963 22.2013C16.5054 23.1941 14.5844 23.7278 12.6237 23.7493C10.663 23.7709 8.73073 23.2796 7.01844 22.3242C5.30614 21.3688 3.87328 19.9824 2.86193 18.3026C1.85057 16.6227 1.29584 14.7077 1.25272 12.7474C1.2096 10.787 1.6796 8.84949 2.61612 7.12679C3.55264 5.40409 4.92315 3.95608 6.59179 2.92631" stroke="url(#paint0_linear_150_13200)" stroke-width="2.5" stroke-linecap="round" stroke-linejoin="round"/>
</g>
<defs>
<linearGradient id="paint0_linear_150_13200" x1="7" y1="3.5" x2="23" y2="12" gradientUnits="userSpaceOnUse">
<stop stop-color="#0079FF"/>
<stop offset="1" stop-color="#D9D9D9"/>
</linearGradient>
</defs>
</svg>
