<svg width="512" height="512" viewBox="0 0 512 512" fill="none" xmlns="http://www.w3.org/2000/svg">
<rect width="512" height="512" rx="40" fill="#1C1C27"/>
<path fill-rule="evenodd" clip-rule="evenodd" d="M232.357 83.0239L320.954 81.015C321.384 81.0053 321.807 81.1347 322.158 81.3841L382.928 124.559C384.487 125.666 383.752 128.12 381.841 128.188L335.548 129.837L321.349 169.82L257.349 149.82L269.321 111.972L231.295 86.6888C229.666 85.6054 230.401 83.0682 232.357 83.0239Z" fill="#3192FA"/>
<path d="M320.954 81.015L320.943 80.5152L320.954 81.015ZM232.357 83.0239L232.369 83.5238L232.357 83.0239ZM322.158 81.3841L321.868 81.7917V81.7917L322.158 81.3841ZM382.928 124.559L382.638 124.966L382.638 124.966L382.928 124.559ZM381.841 128.188L381.858 128.688L381.841 128.188ZM335.548 129.837L335.53 129.337L335.191 129.35L335.077 129.67L335.548 129.837ZM321.349 169.82L321.2 170.297L321.659 170.44L321.82 169.987L321.349 169.82ZM257.349 149.82L256.872 149.669L256.721 150.147L257.2 150.297L257.349 149.82ZM269.321 111.972L269.798 112.123L269.911 111.764L269.598 111.556L269.321 111.972ZM231.295 86.6888L231.572 86.2725L231.295 86.6888ZM320.943 80.5152L232.346 82.524L232.369 83.5238L320.965 81.5149L320.943 80.5152ZM322.447 80.9765C322.008 80.6648 321.481 80.503 320.943 80.5152L320.965 81.5149C321.288 81.5076 321.605 81.6047 321.868 81.7917L322.447 80.9765ZM383.217 124.151L322.447 80.9765L321.868 81.7917L382.638 124.966L383.217 124.151ZM381.858 128.688C384.247 128.603 385.166 125.536 383.217 124.151L382.638 124.966C383.807 125.797 383.256 127.637 381.823 127.688L381.858 128.688ZM335.566 130.337L381.858 128.688L381.823 127.688L335.53 129.337L335.566 130.337ZM335.077 129.67L320.878 169.652L321.82 169.987L336.019 130.004L335.077 129.67ZM321.498 169.342L257.498 149.342L257.2 150.297L321.2 170.297L321.498 169.342ZM257.825 149.97L269.798 112.123L268.844 111.821L256.872 149.669L257.825 149.97ZM231.019 87.1052L269.044 112.388L269.598 111.556L231.572 86.2725L231.019 87.1052ZM232.346 82.524C229.901 82.5795 228.982 85.7509 231.019 87.1052L231.572 86.2725C230.35 85.4599 230.902 83.557 232.369 83.5238L232.346 82.524Z" fill="#3192FA"/>
<path fill-rule="evenodd" clip-rule="evenodd" d="M256.882 140C207.829 143.192 109.724 162.342 109.724 325.123C109.724 360.233 141.66 373 256.882 373V140ZM256.882 140C303.89 143.192 397.908 162.342 397.908 325.123C397.908 360.233 367.302 373 256.882 373V140Z" fill="white"/>
<path d="M177.171 256.5C183.303 256.5 201.084 254.661 223.158 247.303" stroke="black" stroke-width="12.2632" stroke-linecap="round"/>
<path d="M330.46 256.5C324.329 256.5 306.547 254.661 284.474 247.303" stroke="black" stroke-width="12.2632" stroke-linecap="round"/>
<path d="M213.96 293.289C216.913 299.421 228.722 311.684 252.34 311.684C275.958 311.684 289.735 299.421 293.671 293.289" stroke="black" stroke-width="12.2632" stroke-linecap="round"/>
<path d="M76.6857 204.382C79.7514 198.25 135.958 191.096 159.462 182.921C162.528 193.14 161.915 217.258 134.936 231.974C101.212 250.368 71.0327 215.688 76.6857 204.382Z" fill="white"/>
<path d="M435.955 204.382C432.889 198.25 376.683 191.096 353.178 182.921C350.113 193.14 350.726 217.258 377.705 231.974C411.428 250.368 441.608 215.688 435.955 204.382Z" fill="white"/>
<path d="M253.816 274.895V305.553" stroke="black" stroke-width="12.2632" stroke-linecap="round"/>
<path d="M241.553 271.829H266.079" stroke="black" stroke-width="12.2632" stroke-linecap="round"/>
<path d="M370 154C370 156.209 371.791 158 374 158C376.209 158 378 156.209 378 154H370ZM370 125V154H378V125H370Z" fill="#3192FA"/>
<path d="M98.3251 458H80.2347C79.6416 458 79.2709 457.629 79.2709 457.036V404.544C79.2709 403.951 79.6416 403.581 80.2347 403.581H98.3251C116.415 403.581 125.831 413.664 125.831 430.79C125.831 447.843 116.415 458 98.3251 458ZM89.2799 412.996V448.584H97.213C109.298 448.584 115.452 442.208 115.452 430.79C115.452 419.373 109.298 412.996 97.213 412.996H89.2799ZM142.192 458H134.482C133.888 458 133.518 457.629 133.518 457.036V420.559C133.518 419.966 133.888 419.595 134.482 419.595H141.451C142.044 419.595 142.489 419.892 142.489 420.559L142.711 425.378C145.306 421.226 149.829 419.076 154.425 419.076C155.538 419.076 156.279 419.15 157.02 419.298C157.614 419.447 157.836 419.817 157.836 420.336V427.973C157.836 428.64 157.465 428.863 156.798 428.788C155.834 428.714 154.722 428.492 153.239 428.492C148.049 428.492 143.156 432.051 143.156 438.13V457.036C143.156 457.629 142.785 458 142.192 458ZM179.355 458.741C167.27 458.741 159.93 450.438 159.93 438.797C159.93 427.157 167.27 418.854 179.355 418.854C191.144 418.854 197.891 427.602 197.52 440.799C197.446 441.467 197.075 441.763 196.482 441.763H170.162C171.052 447.027 174.314 450.215 179.429 450.215C183.359 450.215 186.102 448.732 187.882 445.841C188.178 445.322 188.623 445.248 189.142 445.396L195.74 447.694C196.334 447.917 196.556 448.362 196.259 448.955C192.849 455.702 186.473 458.741 179.355 458.741ZM170.31 434.571H187.214C186.325 430.049 183.433 427.38 179.281 427.38C174.759 427.38 171.496 429.975 170.31 434.571ZM218.89 458.741C207.918 458.741 200.948 450.586 200.948 438.797C200.948 427.009 207.918 418.854 218.89 418.854C224.229 418.854 228.677 421.078 231.42 424.859L231.643 420.559C231.643 419.892 232.088 419.595 232.681 419.595H239.65C240.243 419.595 240.614 419.966 240.614 420.559V457.036C240.614 457.629 240.243 458 239.65 458H232.681C232.088 458 231.643 457.703 231.643 457.036L231.42 452.736C228.677 456.517 224.229 458.741 218.89 458.741ZM221.263 449.993C227.417 449.993 231.643 445.396 231.643 438.797C231.643 432.199 227.417 427.602 221.263 427.602C215.109 427.602 210.883 432.199 210.883 438.797C210.883 445.396 215.109 449.993 221.263 449.993ZM257.861 458H250.15C249.557 458 249.186 457.629 249.186 457.036V420.559C249.186 419.966 249.557 419.595 250.15 419.595H257.119C257.712 419.595 258.157 419.892 258.157 420.559L258.38 425.156C261.123 421.004 265.794 418.854 270.539 418.854C276.322 418.854 280.548 421.374 282.624 425.897C285.441 421.226 290.483 418.854 295.747 418.854C304.125 418.854 309.24 424.192 309.24 433.015V457.036C309.24 457.629 308.87 458 308.277 458H300.566C299.973 458 299.602 457.629 299.602 457.036V436.944C299.602 430.568 297.23 427.602 292.781 427.602C288.259 427.602 284.033 431.087 284.033 438.427V457.036C284.033 457.629 283.662 458 283.069 458H275.358C274.765 458 274.394 457.629 274.394 457.036V436.944C274.394 430.568 272.022 427.602 267.573 427.602C263.051 427.602 258.825 431.087 258.825 438.427V457.036C258.825 457.629 258.454 458 257.861 458ZM341.945 458H334.234C333.641 458 333.27 457.629 333.27 457.036V404.544C333.27 403.951 333.641 403.581 334.234 403.581H342.76C343.279 403.581 343.65 403.803 343.872 404.248L362.704 435.535L381.314 404.248C381.536 403.803 381.907 403.581 382.426 403.581H390.729C391.323 403.581 391.693 403.951 391.693 404.544V457.036C391.693 457.629 391.323 458 390.729 458H383.019C382.426 458 382.055 457.629 382.055 457.036V420.262L366.115 446.953C365.892 447.398 365.522 447.62 365.003 447.62H359.961C359.442 447.62 359.071 447.398 358.849 446.953L342.909 420.633V457.036C342.909 457.629 342.538 458 341.945 458ZM418.402 458.741C406.317 458.741 398.977 450.438 398.977 438.797C398.977 427.157 406.317 418.854 418.402 418.854C430.19 418.854 436.937 427.602 436.566 440.799C436.492 441.467 436.122 441.763 435.529 441.763H409.208C410.098 447.027 413.36 450.215 418.476 450.215C422.406 450.215 425.149 448.732 426.928 445.841C427.225 445.322 427.67 445.248 428.189 445.396L434.787 447.694C435.38 447.917 435.603 448.362 435.306 448.955C431.896 455.702 425.519 458.741 418.402 458.741ZM409.357 434.571H426.261C425.371 430.049 422.48 427.38 418.328 427.38C413.805 427.38 410.543 429.975 409.357 434.571Z" fill="#8CB1E5"/>
</svg>
